<svg xmlns="http://www.w3.org/2000/svg" width="284" height="284" viewBox="0 0 284 284">
  <g fill="#FFFFFF" fill-rule="evenodd">
    <path d="M199.284091,135.62139 C200.682576,137.01861 201.381818,138.648684 201.381818,140.511658 C201.381818,145.16907 199.051025,147.497754 194.389394,147.497754 C192.524733,147.497754 190.893182,146.799144 189.494697,145.401925 L165.720455,121.649198 L165.021212,121.649198 L164.32197,120.950588 L163.622727,120.950588 C162.224242,120.950588 161.525,121.649198 161.525,123.046417 L161.525,123.745027 L161.525,144.703316 L161.525,167.058824 L161.525,211.07123 C161.525,216.660152 158.728075,219.454545 153.134091,219.454545 C147.540107,219.454545 144.743182,216.660152 144.743182,211.07123 L144.743182,167.058824 C144.743182,165.19585 144.043939,164.264385 142.645455,164.264385 C141.24697,164.264385 140.547727,165.19585 140.547727,167.058824 L140.547727,211.07123 C140.547727,216.660152 137.750802,219.454545 132.156818,219.454545 C126.562834,219.454545 123.765909,216.660152 123.765909,211.07123 L123.765909,167.058824 L123.765909,144.703316 L123.765909,123.046417 C123.765909,121.649198 123.066667,120.950588 121.668182,120.950588 C120.735874,120.950588 120.036631,121.183443 119.570455,121.649198 L95.7962121,145.401925 C94.3977273,146.799144 92.7661765,147.497754 90.9015152,147.497754 C86.2398841,147.497754 83.9090909,145.16907 83.9090909,140.511658 C83.9090909,138.648684 84.6083333,137.01861 86.0068182,135.62139 L118.17197,103.485348 L118.17197,102.786738 C119.570455,101.389519 121.435071,100.690909 123.765909,100.690909 L160.825758,100.690909 L161.525,100.690909 C163.855838,100.690909 165.720455,101.389519 167.118939,102.786738 L167.118939,103.485348 L199.284091,135.62139 Z M123.927273,79.7465677 C123.927273,67.8912194 129.521167,61.9636364 140.709091,61.9636364 C151.897014,61.9636364 157.490909,67.8912194 157.490909,79.7465677 C157.490909,91.1276893 151.897014,96.8181818 140.709091,96.8181818 C129.521167,96.8181818 123.927273,91.1276893 123.927273,79.7465677 Z"/>
    <path fill-rule="nonzero" d="M142,15.4909091 C106.7553,15.4909091 77.028377,27.7314104 52.3798928,52.3798947 C27.7314071,77.0283719 15.4909091,106.755292 15.4909091,142 C15.4909091,177.244708 27.7314071,206.971628 52.3798947,231.620107 C77.0283719,256.268593 106.755292,268.509091 142,268.509091 C177.244708,268.509091 206.971628,256.268593 231.620106,231.620106 C256.26859,206.971623 268.509091,177.2447 268.509091,142 C268.509091,106.7553 256.26859,77.028377 231.620106,52.3798937 C206.971623,27.7314104 177.2447,15.4909091 142,15.4909091 Z M142,0 C181.341547,0 215.011957,13.8642903 242.573833,41.4261669 C270.13571,68.9880434 284,102.658453 284,142 C284,181.341547 270.13571,215.011957 242.573834,242.573832 C215.011963,270.135713 181.341556,284 142,284 C102.658444,284 68.9880371,270.135713 41.4261678,242.573834 C13.8642872,215.011963 0,181.341556 0,142 C0,102.658444 13.8642872,68.9880371 41.4261669,41.4261669 C68.9880434,13.8642903 102.658453,0 142,0 Z"/>
  </g>
</svg>
