<svg xmlns="http://www.w3.org/2000/svg" width="16" height="16" viewBox="0 0 16 16">
  <path fill="#FFFFFF" fill-rule="evenodd" d="M8,1 C10.2222347,1 12.111104,1.77777067 13.6666667,3.33333333 C15.2222293,4.888896 16,6.77776533 16,9 C16,11.2222347 15.2222293,13.111104 13.6666667,14.6666667 C12.111104,16.2222299 10.2222347,17 8,17 C5.77776533,17 3.888896,16.2222299 2.33333333,14.6666667 C0.777770133,13.111104 0,11.2222347 0,9 C0,6.77776533 0.777770133,4.888896 2.33333333,3.33333333 C3.888896,1.77777067 5.77776533,1 8,1 Z M8,3.4 L8,15.4 C9.5466752,15.4 10.8666624,14.8184443 11.96,13.6553191 C13.0533376,12.492194 13.6,11.0737661 13.6,9.4 C13.6,7.72623387 13.0533376,6.30780596 11.96,5.14468085 C10.8666624,3.98155574 9.5466752,3.4 8,3.4 Z" transform="translate(0 -1)"/>
</svg>
