<svg xmlns="http://www.w3.org/2000/svg" width="145" height="156" viewBox="0 0 145 156"><g fill="none" fill-rule="evenodd"><path fill="#D0021B" d="M72.968 128c3.536.006 7.063.058 10.56.161 6.484.192 12.826.555 18.802 1.077 7.431.65 14.278 1.543 20.181 2.63 5.999 1.104 11.011 2.406 14.747 3.835 3.01 1.15 5.185 2.383 6.443 3.65 1.475 1.484 1.694 3.016.656 4.515-.988 1.427-3.128 2.823-6.325 4.124-3.682 1.498-8.752 2.865-14.895 4.024-6.464 1.218-14.102 2.202-22.424 2.882-8.76.716-18.234 1.09-27.745 1.102-9.529.011-19.043-.34-27.865-1.036-8.369-.66-16.07-1.627-22.614-2.832-6.212-1.143-11.363-2.499-15.138-3.987-3.275-1.291-5.502-2.68-6.582-4.102-1.135-1.497-1.013-3.03.365-4.519 1.228-1.327 3.462-2.618 6.608-3.821 3.67-1.404 8.573-2.686 14.433-3.777 5.762-1.074 12.44-1.962 19.694-2.617 6.072-.548 12.536-.93 19.154-1.134A382.13 382.13 0 0 1 72.968 128zm-.85 2.632a309.39 309.39 0 0 0-8.585.131c-5.257.156-10.4.45-15.245.873-5.714.5-11.004 1.177-15.62 1.996-4.692.834-8.681 1.814-11.761 2.892-2.841.995-4.898 2.072-6.08 3.185-1.326 1.251-1.55 2.545-.674 3.81.785 1.135 2.468 2.245 4.977 3.282 3.004 1.241 7.18 2.374 12.256 3.331 5.25.99 11.454 1.79 18.214 2.343 7.11.581 14.8.883 22.519.893 7.735.01 15.458-.275 22.62-.84 6.798-.537 13.053-1.322 18.367-2.301 5.134-.945 9.377-2.068 12.458-3.302 2.57-1.03 4.322-2.133 5.18-3.264.942-1.24.82-2.511-.361-3.743-1.009-1.052-2.797-2.074-5.293-3.029-3.035-1.161-7.109-2.22-11.984-3.116-4.623-.851-9.958-1.557-15.745-2.079a264.67 264.67 0 0 0-15.53-.92 309.984 309.984 0 0 0-9.712-.142zm1.027 1.702c2.335.008 4.66.042 6.968.11 4.679.139 9.251.406 13.54.793 5.1.46 9.786 1.088 13.813 1.847 4.023.759 7.38 1.647 9.884 2.62 2.102.816 3.599 1.69 4.43 2.587.932 1.008 1.031 2.045.296 3.059-.714.984-2.223 1.946-4.458 2.84-2.617 1.05-6.223 2.003-10.584 2.806-4.518.832-9.836 1.5-15.615 1.955-5.991.474-12.447.716-18.919.716-6.472 0-12.928-.242-18.92-.716-5.778-.455-11.097-1.123-15.614-1.955-4.362-.803-7.967-1.757-10.584-2.806-2.235-.894-3.744-1.856-4.458-2.84-.735-1.014-.636-2.051.297-3.06.83-.897 2.327-1.77 4.428-2.586 2.415-.938 5.624-1.798 9.459-2.539 4.121-.796 8.958-1.452 14.24-1.928a226.34 226.34 0 0 1 13.54-.793c2.308-.068 4.633-.102 6.967-.11h1.29zm-1.117 2.632c-1.702.005-3.397.03-5.08.08-3.397.1-6.717.295-9.831.576-3.317.3-6.395.696-9.104 1.171-3.03.532-5.594 1.162-7.548 1.856-1.703.605-2.94 1.258-3.655 1.933-.837.789-.965 1.606-.387 2.403.519.714 1.614 1.412 3.237 2.063 1.907.763 4.535 1.458 7.712 2.044 3.289.605 7.16 1.091 11.367 1.423 4.358.344 9.054.52 13.761.52 4.708 0 9.403-.176 13.761-.52 4.207-.332 8.078-.818 11.367-1.424 3.178-.585 5.805-1.28 7.712-2.043 1.623-.65 2.718-1.349 3.237-2.063.578-.798.45-1.614-.387-2.403-.715-.675-1.952-1.328-3.655-1.933-1.745-.62-3.976-1.189-6.592-1.682-2.933-.553-6.345-1.01-10.06-1.345a164.22 164.22 0 0 0-9.831-.576c-1.683-.05-3.378-.075-5.08-.08h-.944zm.838 1.543c1.326.005 2.645.024 3.956.063 2.66.078 5.26.23 7.697.45 2.793.253 5.369.593 7.6 1.003 2.393.441 4.385.962 5.858 1.534 1.194.464 2.045.96 2.517 1.47.53.573.587 1.162.168 1.737-.406.56-1.263 1.106-2.534 1.615-1.486.596-3.533 1.137-6.01 1.594-2.565.472-5.587.85-8.868 1.11-3.404.269-7.073.407-10.75.407-3.677 0-7.345-.138-10.749-.407-3.282-.26-6.303-.638-8.87-1.11-2.476-.457-4.523-.998-6.01-1.594-1.27-.509-2.128-1.055-2.533-1.615-.418-.576-.362-1.164.168-1.737.472-.51 1.323-1.006 2.517-1.47 1.371-.533 3.194-1.021 5.371-1.442 2.34-.452 5.089-.824 8.088-1.095a128.35 128.35 0 0 1 7.696-.45c1.31-.04 2.63-.058 3.956-.063h.732zm-.558 2.632a81.51 81.51 0 0 0-2.068.032 66.69 66.69 0 0 0-3.99.234c-2.81.253-5.174.68-6.688 1.201-.675.234-1.18.485-1.49.746-.41.342-.488.7-.236 1.047.202.279.62.551 1.236.806.757.312 1.808.597 3.086.838 1.322.25 2.883.45 4.585.59 1.758.144 3.656.22 5.564.224a72.29 72.29 0 0 0 5.617-.198c1.72-.13 3.306-.325 4.66-.568 1.306-.235 2.393-.515 3.188-.824.674-.262 1.136-.543 1.365-.833.257-.324.225-.656-.094-.978-.25-.252-.68-.497-1.271-.727-1.461-.567-3.905-1.034-6.86-1.31a70.755 70.755 0 0 0-6.027-.28h-.577z"/><path fill="#FFF" stroke="#5C000B" stroke-width="4" d="M71.922 2c-6.328 0-12.267 1.1-17.82 3.301-5.551 2.201-10.416 5.2-14.595 8.997-4.179 3.796-7.462 8.28-9.85 13.453-2.388 5.172-3.582 10.674-3.582 16.506 0 10.015 2.388 20.496 7.164 31.446 4.775 10.95 10.029 20.964 15.76 30.042 5.73 9.08 10.984 16.59 15.76 22.532l7.163 8.914 7.164-8.914c4.776-5.942 10.029-13.453 15.76-22.532 5.73-9.078 10.984-19.092 15.76-30.042 4.776-10.95 7.164-21.431 7.164-31.446 0-5.832-1.194-11.334-3.582-16.506-2.388-5.173-5.671-9.657-9.85-13.453-4.18-3.797-9.044-6.796-14.596-8.997C84.19 3.101 78.25 2 71.922 2zm0 67.35c-6.109 0-11.333-2.171-15.674-6.512-4.34-4.34-6.51-9.565-6.51-15.674 0-6.216 2.17-11.494 6.51-15.835 4.34-4.34 9.565-6.51 15.674-6.51 6.11 0 11.334 2.17 15.675 6.51 4.34 4.34 6.51 9.619 6.51 15.835 0 6.11-2.17 11.334-6.51 15.674-4.341 4.341-9.566 6.511-15.675 6.511z"/></g></svg>