<svg xmlns="http://www.w3.org/2000/svg" width="10" height="10" viewBox="0 0 10 10">
  <path fill="#FFFFFF" fill-rule="evenodd" d="M8.33333358,5.20833385 L8.33333358,2.08333412 C8.33333358,1.97048538 8.29210066,1.872831 8.20963483,1.79036517 C8.127169,1.70789934 8.02951462,1.66666642 7.91666588,1.66666642 L4.79166615,1.66666642 C4.60937449,1.66666642 4.4813372,1.7513008 4.40755137,1.92057246 C4.33376699,2.09852558 4.36414845,2.25043287 4.4986972,2.37630162 L5.43619843,3.31380285 L1.95963538,6.79036444 C1.87716954,6.87283027 1.83593809,6.9704861 1.83593809,7.08333339 C1.83593809,7.19618068 1.87716954,7.29383651 1.95963538,7.37630235 L2.62369765,8.04036462 C2.70616349,8.12283046 2.80381932,8.16406191 2.91666661,8.16406191 C3.0295139,8.16406191 3.12716973,8.12283046 3.20963556,8.04036462 L6.68619715,4.56380157 L7.62369838,5.5013028 C7.70182276,5.58376718 7.79947859,5.62500009 7.91666588,5.62500009 C7.96875025,5.62500009 8.02300317,5.61415009 8.07942754,5.59244863 C8.2486992,5.5186628 8.33333358,5.39062551 8.33333358,5.20833385 Z M10,1.87499954 L10,8.12500046 C10,8.64149574 9.8166248,9.0831145 9.44987001,9.44986987 C9.08311377,9.81662509 8.64149544,10 8.12500046,10 L1.87499954,10 C1.35850426,10 0.916885502,9.81662509 0.550130134,9.44986987 C0.183374913,9.0831145 0,8.64149574 0,8.12500046 L0,1.87499954 C0,1.35850456 0.183374913,0.916886231 0.550130134,0.550129989 C0.916885502,0.183375205 1.35850426,0 1.87499954,0 L8.12500046,0 C8.64149544,0 9.08311377,0.183375205 9.44987001,0.550129989 C9.8166248,0.916886231 10,1.35850456 10,1.87499954 Z"/>
</svg>
