<svg xmlns="http://www.w3.org/2000/svg" width="10" height="10" viewBox="0 0 10 10"><path fill="#D0021B" fill-rule="evenodd" d="M8.333 5.208V2.083a.4.4 0 0 0-.123-.293.4.4 0 0 0-.293-.123H4.792a.39.39 0 0 0-.384.254c-.074.178-.044.33.09.455l.938.938L1.96 6.79a.4.4 0 0 0-.124.293.4.4 0 0 0 .124.293l.664.664a.4.4 0 0 0 .293.124.4.4 0 0 0 .293-.124l3.476-3.476.938.937a.387.387 0 0 0 .293.124c.052 0 .106-.01.162-.033a.39.39 0 0 0 .254-.384zM10 1.875v6.25c0 .516-.183.958-.55 1.325-.367.367-.809.55-1.325.55h-6.25c-.516 0-.958-.183-1.325-.55A1.806 1.806 0 0 1 0 8.125v-6.25C0 1.359.183.917.55.55.917.183 1.36 0 1.875 0h6.25c.516 0 .958.183 1.325.55.367.367.55.809.55 1.325z"/></svg>