<svg xmlns="http://www.w3.org/2000/svg" width="283" height="283" viewBox="0 0 283 283">
  <g fill="#FFFFFF" fill-rule="evenodd">
    <path fill-rule="nonzero" d="M141.5,267 C210.811736,267 267,210.811736 267,141.5 C267,72.1882639 210.811736,16 141.5,16 C72.1882639,16 16,72.1882639 16,141.5 C16,210.811736 72.1882639,267 141.5,267 Z M141.5,283 C63.3517079,283 0,219.648292 0,141.5 C0,63.3517079 63.3517079,0 141.5,0 C219.648292,0 283,63.3517079 283,141.5 C283,219.648292 219.648292,283 141.5,283 Z"/>
    <polygon points="142 2 142 141.014 272.19 101.845 242.824 49.965 199.754 16.683"/>
  </g>
</svg>
