<svg xmlns="http://www.w3.org/2000/svg" width="36" height="42" viewBox="0 0 36 42">
  <path fill="#FFF" fill-rule="evenodd" d="M32.452 22.2c0-1.295-.246-2.706-.738-4.232a385.917 385.917 0 0 0-1.475-4.486c-.491-1.465-.737-2.752-.737-3.862v-.74H14.75v.74c0 .54-.092 1.06-.277 1.56a4.93 4.93 0 0 1-.853 1.446c-.384.463-.737.848-1.06 1.156a43.405 43.405 0 0 1-1.567 1.411c-1.245 1.11-2.359 1.973-3.342 2.59-.338.216-.86.509-1.567.879a20.328 20.328 0 0 0-1.348.67c-.254.14-.527.293-.819.463-.292.17-.526.335-.703.497-.176.162-.265.305-.265.428 0 1.095.234 1.985.703 2.67.469.687 1.218 1.03 2.247 1.03.661 0 1.31-.116 1.948-.347.638-.231 1.16-.485 1.567-.763.407-.278.83-.532 1.268-.763.438-.231.81-.347 1.118-.347v13.32c0 .77.295 1.457.887 2.058.592.601 1.28.902 2.063.902.799 0 1.49-.293 2.074-.879.584-.586.876-1.28.876-2.081v-7.654c.707.54 1.498.809 2.374.809 1.06 0 1.974-.409 2.743-1.226a3.183 3.183 0 0 0 1.59.417c.569 0 1.133-.135 1.694-.405.56-.27.964-.636 1.21-1.098.369.061.8.092 1.29.092 1.307 0 2.275-.374 2.905-1.122.63-.747.945-1.792.945-3.133zm-2.95-17.76c0-.4-.146-.748-.438-1.04a1.415 1.415 0 0 0-1.037-.44c-.4 0-.746.146-1.038.44-.292.292-.438.64-.438 1.04s.146.748.438 1.04c.292.294.638.44 1.038.44s.745-.146 1.037-.44c.292-.292.438-.64.438-1.04zm5.9 17.667c0 2.19-.595 3.963-1.786 5.32-1.191 1.356-2.862 2.027-5.013 2.011l-.115-.023c-1.168.94-2.536 1.41-4.103 1.41-.338 0-.668-.022-.991-.069a7.148 7.148 0 0 1-2.743.856v3.908c0 1.619-.584 3.01-1.751 4.174-1.168 1.164-2.559 1.746-4.172 1.746-1.583 0-2.958-.586-4.126-1.758-1.168-1.171-1.752-2.559-1.752-4.162v-8.649c-.83.34-1.813.509-2.95.509-1.859 0-3.307-.628-4.344-1.885C.519 24.24 0 22.647 0 20.72c0-.586.134-1.122.403-1.607.27-.486.65-.91 1.141-1.272.492-.362.976-.675 1.452-.937a39.49 39.49 0 0 1 1.66-.855c.63-.309 1.106-.563 1.429-.763.845-.54 1.836-1.31 2.973-2.313.046-.03.177-.139.392-.324a16.682 16.682 0 0 0 .99-.913c.216-.208.389-.393.52-.555.13-.162.268-.335.414-.52.146-.185.254-.367.323-.544.07-.177.104-.343.104-.497V2.96c0-.817.288-1.515.864-2.093A2.838 2.838 0 0 1 14.751 0H29.5c.815 0 1.51.29 2.087.867.576.578.864 1.276.864 2.093v6.66c0 .91.453 2.629 1.36 5.157 1.06 2.93 1.59 5.373 1.59 7.33z"/>
</svg>
