<svg xmlns="http://www.w3.org/2000/svg" width="43" height="50" viewBox="0 0 43 50" xmlns:xlink="http://www.w3.org/1999/xlink"><defs><path id="a" d="M38.762 26.429c0-1.542-.294-3.221-.881-5.038a458.346 458.346 0 0 0-1.762-5.341c-.587-1.744-.88-3.276-.88-4.598v-.88h-17.62v.88c0 .643-.11 1.262-.33 1.859-.22.596-.56 1.17-1.019 1.72-.459.55-.88 1.01-1.266 1.377a51.782 51.782 0 0 1-1.872 1.68c-1.487 1.32-2.818 2.348-3.992 3.082-.404.257-1.028.606-1.872 1.047-.055.018-.262.114-.62.289a24.31 24.31 0 0 0-.99.509c-.303.165-.63.349-.978.55-.349.202-.629.4-.84.592-.21.193-.316.363-.316.51 0 1.303.28 2.363.84 3.18.56.816 1.454 1.224 2.684 1.224.789 0 1.564-.137 2.326-.413.762-.275 1.386-.578 1.872-.908.486-.33.991-.633 1.514-.908.523-.276.968-.413 1.335-.413v15.857c0 .917.354 1.734 1.06 2.45.707.716 1.528 1.074 2.464 1.074.954 0 1.78-.35 2.478-1.047.697-.697 1.046-1.523 1.046-2.477v-9.113c.844.643 1.79.964 2.835.964 1.267 0 2.359-.486 3.276-1.46.588.331 1.22.496 1.9.496.68 0 1.354-.16 2.023-.481.67-.322 1.152-.757 1.446-1.308.44.073.954.11 1.541.11 1.56 0 2.717-.445 3.47-1.335.752-.89 1.128-2.134 1.128-3.73zM35.238 5.286c0-.477-.174-.89-.523-1.24a1.693 1.693 0 0 0-1.239-.522c-.477 0-.89.174-1.239.523a1.693 1.693 0 0 0-.523 1.239c0 .477.175.89.523 1.239.35.348.762.523 1.24.523.476 0 .89-.175 1.238-.523.349-.35.523-.762.523-1.24zm7.048 21.032c0 2.607-.711 4.717-2.134 6.332-1.422 1.615-3.418 2.414-5.988 2.395l-.137-.027c-1.395 1.12-3.028 1.68-4.9 1.68-.404 0-.799-.028-1.184-.083-.991.55-2.083.89-3.276 1.018v4.653c0 1.927-.698 3.583-2.093 4.969-1.394 1.386-3.055 2.078-4.982 2.078-1.89 0-3.533-.697-4.928-2.092s-2.093-3.047-2.093-4.955V31.99c-.99.403-2.165.605-3.523.605-2.221 0-3.95-.748-5.19-2.243C.62 28.856 0 26.96 0 24.667c0-.698.16-1.336.482-1.914a4.725 4.725 0 0 1 1.362-1.514 15.675 15.675 0 0 1 1.735-1.115c.569-.312 1.23-.651 1.982-1.018s1.321-.67 1.707-.909c1.01-.642 2.193-1.56 3.551-2.753.055-.037.211-.165.468-.385a19.905 19.905 0 0 0 1.184-1.088c.257-.247.463-.468.62-.66l.495-.62c.174-.22.303-.436.385-.647a1.63 1.63 0 0 0 .124-.592V3.524c0-.973.344-1.803 1.033-2.492A3.395 3.395 0 0 1 17.619 0h17.62c.972 0 1.802.344 2.49 1.032a3.395 3.395 0 0 1 1.033 2.492v7.928c0 1.083.541 3.13 1.624 6.14 1.267 3.487 1.9 6.396 1.9 8.726z"/></defs><g fill="none" fill-rule="evenodd"><mask id="b" fill="#fff"><use xlink:href="#a"/></mask><use fill="#5C000B" xlink:href="#a"/><path fill="#5C000B" mask="url(#b)" d="M0 0h43v50H0z"/></g></svg>