<svg xmlns="http://www.w3.org/2000/svg" width="284" height="284" viewBox="0 0 284 284"><g fill="#FFF" fill-rule="evenodd"><path fill-rule="nonzero" d="M142 15.49c-35.245 0-64.972 12.241-89.62 36.89C27.73 77.028 15.49 106.755 15.49 142c0 35.245 12.241 64.972 36.89 89.62 24.648 24.649 54.375 36.89 89.62 36.89 35.245 0 64.972-12.241 89.62-36.89 24.649-24.648 36.89-54.375 36.89-89.62 0-35.245-12.241-64.972-36.89-89.62C206.972 27.73 177.245 15.49 142 15.49zM142 0c39.342 0 73.012 13.864 100.574 41.426C270.136 68.988 284 102.658 284 142s-13.864 73.012-41.426 100.574C215.012 270.136 181.342 284 142 284s-73.012-13.864-100.574-41.426C13.864 215.012 0 181.342 0 142S13.864 68.988 41.426 41.426C68.988 13.864 102.658 0 142 0z"/><path d="M128.32 195.163c-7.019-1.717-13.436-4.515-19.252-8.392-5.816-3.878-10.663-8.565-14.54-14.062-6.823 14.724-7.24 24.491-1.252 29.301 1.276 1.031 3.362 1.632 6.258 1.804 2.896.172 6.024-.061 9.387-.7 3.362-.637 6.822-1.656 10.38-3.055 3.559-1.398 6.565-3.03 9.019-4.896zm-1.693-61.18h33.277c0-5.3-1.51-9.448-4.528-12.442-3.018-2.994-7.153-4.49-12.405-4.49-5.056 0-9.043 1.533-11.964 4.6-2.92 3.068-4.38 7.179-4.38 12.333zm75.904-27.608h-2.503c1.276-5.006 1.828-9.178 1.656-12.516-.171-3.337-.785-6.037-1.84-8.098-1.055-2.061-2.614-3.46-4.675-4.196-2.062-.737-4.356-1.007-6.884-.81-2.528.196-5.35.846-8.466 1.95-3.117 1.105-6.27 2.492-9.46 4.16-3.191 1.67-6.48 3.608-9.866 5.817a58.71 58.71 0 0 1 17.559 8.356c5.374 3.754 9.914 8.147 13.62 13.178 3.705 5.03 6.405 10.712 8.098 17.043 1.694 6.332 2.074 12.762 1.141 19.29h-73.99c0 2.944.246 5.546.736 7.803a19.921 19.921 0 0 0 2.504 6.258c1.178 1.914 2.883 3.387 5.116 4.418 2.233 1.03 4.994 1.546 8.283 1.546 4.27 0 7.767-1.08 10.49-3.24 2.725-2.16 4.504-5.153 5.339-8.982h39.755c-3.484 11.29-10.392 20.541-20.724 27.756s-22.05 10.822-35.155 10.822c-4.073 0-7.975-.368-11.706-1.104-1.717 1.963-5.423 4.27-11.117 6.92-5.693 2.651-11.78 4.565-18.258 5.743-6.479 1.178-11.853.32-16.123-2.577-3.828-2.945-6.283-6.847-7.362-11.706-1.08-4.859-.908-10.11.515-15.755 1.423-5.644 3.583-11.583 6.479-17.816 2.896-6.234 6.417-12.32 10.565-18.259 4.147-5.938 8.405-11.497 12.773-16.675 4.368-5.178 8.724-9.681 13.068-13.51 4.344-3.828 8.184-6.577 11.522-8.245v-1.767c-5.89 1.816-12.234 5.19-19.032 10.123-6.797 4.932-12.7 10.012-17.706 15.24-5.006 5.227-8.908 10.024-11.706 14.393.197-5.203 1.031-10.136 2.504-14.798 1.472-4.663 3.435-8.81 5.89-12.442a54.754 54.754 0 0 1 8.687-9.976c3.337-3.019 6.957-5.485 10.859-7.4a80.372 80.372 0 0 1 12.369-4.822 52.05 52.05 0 0 1 13.288-2.171c4.516-.148 9.056.049 13.62.589 15.216-9.13 27.56-13.768 37.032-13.915h.516c2.797 0 5.325.442 7.583 1.325 3.926 1.473 6.331 4.724 7.215 9.755.883 5.031.147 11.13-2.209 18.295z"/></g></svg>