<svg xmlns="http://www.w3.org/2000/svg" width="135" height="135" viewBox="0 0 135 135"><path fill="#5C000B" fill-rule="evenodd" d="M49.35 106.864l-6.745 6.91c-2.96 2.85-6.525 4.276-10.692 4.276s-7.732-1.425-10.693-4.277a15.218 15.218 0 0 1-3.29-4.852c-.767-1.81-1.151-3.757-1.151-5.84 0-1.974.384-3.866 1.151-5.675a15.217 15.217 0 0 1 3.29-4.853l25.004-24.84c2.632-2.522 6.087-4.99 10.364-7.402 4.277-2.413 8.225-1.81 11.844 1.81 1.645 1.535 3.619 2.302 5.922 2.302 2.303 0 4.222-.822 5.757-2.467 1.645-1.645 2.468-3.62 2.468-5.922 0-2.303-.823-4.277-2.468-5.922-6.031-5.922-13.187-8.39-21.467-7.403-8.28.987-16.313 5.374-24.1 13.16L9.377 80.71c-2.96 3.07-5.263 6.525-6.909 10.363A30.178 30.178 0 0 0 0 103.081c0 4.277.822 8.334 2.467 12.173 1.646 3.838 3.948 7.293 6.91 10.363 3.07 3.071 6.58 5.374 10.527 6.91 3.948 1.535 7.951 2.302 12.009 2.302 4.058 0 8.033-.767 11.926-2.303 3.893-1.535 7.375-3.838 10.446-6.909l6.909-6.909c1.645-1.535 2.467-3.454 2.467-5.757 0-2.303-.822-4.277-2.467-5.922-1.645-1.645-3.62-2.468-5.922-2.468-2.303 0-4.277.768-5.922 2.303zm76.163-96.726C118.933 3.668 111.586.296 103.47.022c-8.115-.274-15.188 2.55-21.22 8.471l-8.554 8.554c-1.645 1.536-2.468 3.455-2.468 5.758s.823 4.277 2.468 5.922c1.645 1.645 3.619 2.467 5.922 2.467 2.303 0 4.277-.767 5.922-2.303l8.39-8.554c3.18-3.07 6.607-4.222 10.28-3.454 3.674.768 6.827 2.467 9.46 5.1a15.218 15.218 0 0 1 3.29 4.852c.767 1.81 1.15 3.756 1.15 5.84 0 1.974-.383 3.866-1.15 5.675a15.218 15.218 0 0 1-3.29 4.853L87.02 69.687c-6.141 6.032-10.802 8.527-13.982 7.485-3.18-1.042-5.374-2.22-6.58-3.537-1.645-1.535-3.62-2.303-5.922-2.303-2.303 0-4.222.823-5.758 2.468-1.645 1.645-2.467 3.619-2.467 5.922 0 2.303.822 4.222 2.467 5.757 2.742 2.852 5.703 4.963 8.883 6.334 3.18 1.37 6.47 2.056 9.87 2.056 4.058 0 8.225-1.015 12.502-3.043 4.277-2.03 8.5-5.127 12.667-9.295l26.813-26.484c2.961-3.07 5.264-6.525 6.91-10.364a30.178 30.178 0 0 0 2.467-12.008c0-4.277-.823-8.335-2.468-12.173-1.645-3.838-3.948-7.293-6.909-10.364z"/></svg>