<svg xmlns="http://www.w3.org/2000/svg" width="161" height="163" viewBox="0 0 161 163"><g fill="none" fill-rule="evenodd"><path fill="#FFF" d="M3 96l48 66h46l2-21 10 20h46l5-116-11-28V2H58l-1 15-11 26 1 49-16-19z"/><path fill="#D0021B" d="M57 2h20v15H57zM127 2h20v15h-20zM87 2h31v15H87z"/><g fill="#5C000B" fill-rule="nonzero"><path d="M112 35h4v8h-4zM112 22h4v8h-4zM111.491 51.551a10.697 10.697 0 0 1-.491 3.253L114.316 56c.455-1.433.686-2.936.684-4.449V48h-3.509v3.551z"/><path d="M150.093 0H55.255v16.258L44.331 44.256l1.6 44.43-14.863-18.544L0 95.525l48.512 66.35V163h49.371l1.72-18.042 7.673 16.76.12 1.282h49.32L161 44.568v-.364l-10.907-27.946V0zm-12.317 18.319h9.41l9.496 24.362c-10.76-1.191-18.909-10.334-18.923-21.228l.017-3.134zm-8.085-14.856h16.962v11.393h-16.962V3.463zm-8.601 0h5.16v16.535h-5.16V3.463zm-3.44 11.393h-13.264V3.463h13.263v11.393zM87.51 3.463h13.435v11.393H87.51V3.463zm-8.601 0h5.16v16.535h-5.16V3.463zm-20.213 0h16.772v11.393H58.696V3.463zm8.6 14.856v3.134c-.014 10.787-8.01 19.874-18.647 21.193l9.479-24.24 9.169-.087zm-56.27 86.383l4.13-3.186-2.1-2.753-4.059 3.151-4.215-5.749 25.804-21.14 15.586 19.444 2.22 61.293-37.365-51.06zm40.909 54.887L47.84 46.195C60.72 45.253 70.7 34.47 70.72 21.47V18.32h4.73v5.194h12.042V18.32h13.435v77.466l-6.158 63.804H51.935zm48.357-21.4l2.356-24.432 3.647 37.521-6.003-13.09zm53.104 21.4h-42.851l-6.16-63.804v-31.27a12.615 12.615 0 0 0 5.712-2.286l-2.012-2.805a9.207 9.207 0 0 1-3.63 1.558V18.32h13.263v5.194h12.042V18.32h4.645v3.134c.01 13.087 10.11 23.92 23.086 24.76l-4.095 113.376z"/><path d="M18 94.847L23.779 90 26 93.153 20.221 98zM28 85.847L33.779 81 36 84.153 30.221 89z"/></g></g></svg>