<svg xmlns="http://www.w3.org/2000/svg" width="300" height="469" viewBox="0 0 300 469"><g fill="#F5A623" fill-rule="evenodd" opacity=".3"><path d="M180.172 57.01l-7.583-.506 6.784 6.763c.562.551.837 1.218.828 2.001a2.828 2.828 0 0 1-.841 2.017c-.58.553-1.254.827-2.023.821-.768-.006-1.433-.284-1.994-.835l-6.796-6.72.523 7.535c.08 1.193-.336 2.06-1.251 2.6-.915.54-1.864.602-2.846.185s-1.517-1.208-1.606-2.372l-.932-14.115-9.884-9.858-3.616 13.497 6.22 12.666c.32.641.415 1.267.282 1.879-.134.61-.432 1.093-.897 1.446-.464.354-.97.603-1.517.75-.548.145-1.1.082-1.66-.191-.558-.273-.998-.73-1.32-1.37l-3.35-6.814-2.473 9.228c-.2.747-.646 1.32-1.339 1.72-.692.4-1.412.5-2.16.3-.747-.2-1.32-.647-1.72-1.34-.4-.692-.5-1.412-.3-2.16l2.473-9.227-6.309 4.225c-.599.394-1.208.57-1.828.527-.62-.043-1.131-.264-1.532-.665-.401-.4-.715-.869-.94-1.407-.226-.538-.243-1.105-.053-1.7.19-.597.585-1.092 1.184-1.486l11.72-7.86 3.616-13.497-13.489 3.596-7.865 11.758c-.658.963-1.517 1.38-2.576 1.25-1.06-.13-1.85-.657-2.372-1.583-.523-.925-.45-1.884.216-2.876l4.22-6.264-9.245 2.421c-.761.197-1.476.105-2.145-.274-.669-.38-1.116-.954-1.34-1.723a2.828 2.828 0 0 1 .28-2.166 2.652 2.652 0 0 1 1.716-1.32l9.257-2.464-6.82-3.353c-.787-.396-1.28-.975-1.476-1.736-.196-.761-.14-1.462.17-2.103.311-.641.832-1.118 1.563-1.43.73-.313 1.49-.271 2.277.124l12.651 6.256 13.5-3.639-9.872-9.901-14.084-.909a2.66 2.66 0 0 1-.572-.107c-.776-.208-1.34-.636-1.69-1.284-.35-.649-.468-1.297-.356-1.945.112-.648.435-1.223.97-1.727.536-.503 1.211-.723 2.026-.659l7.583.507-6.785-6.763a2.652 2.652 0 0 1-.827-2.001c.01-.784.29-1.456.84-2.017.552-.56 1.228-.842 2.03-.843.8 0 1.464.285 1.988.857l6.796 6.72-.523-7.535c-.08-1.193.336-2.06 1.251-2.6.915-.54 1.864-.602 2.846-.185s1.517 1.208 1.606 2.372l.932 14.115 9.884 9.858 3.616-13.497-6.22-12.666c-.32-.641-.415-1.267-.282-1.879.133-.61.432-1.093.897-1.446.464-.354.97-.603 1.517-.75.548-.145 1.1-.082 1.66.191.558.273.998.73 1.32 1.37l3.35 6.814 2.472-9.228c.2-.747.647-1.32 1.34-1.72.692-.4 1.412-.5 2.16-.3.747.2 1.32.647 1.72 1.34.4.692.5 1.412.3 2.16l-2.473 9.227 6.309-4.225c.599-.394 1.208-.57 1.828-.527.62.043 1.13.264 1.532.665.401.4.715.869.94 1.407.226.538.243 1.105.053 1.7-.19.597-.585 1.092-1.184 1.486l-11.72 7.86-3.616 13.497 13.489-3.596L176.47 19.6c.658-.963 1.517-1.38 2.576-1.25 1.06.13 1.85.657 2.372 1.583.522.925.45 1.884-.216 2.876l-4.22 6.264 9.245-2.421c.761-.197 1.476-.105 2.145.274.669.38 1.115.954 1.34 1.723a2.828 2.828 0 0 1-.28 2.166 2.652 2.652 0 0 1-1.716 1.32l-9.257 2.464 6.82 3.353c.738.352 1.212.88 1.424 1.583.212.704.205 1.365-.022 1.982-.227.617-.654 1.119-1.282 1.505-.627.387-1.329.476-2.105.268a2.66 2.66 0 0 1-.55-.193l-12.65-6.256-13.5 3.639 9.871 9.901 14.085.909c.88.05 1.558.394 2.034 1.03.477.636.69 1.31.638 2.02-.052.71-.353 1.346-.904 1.907-.55.56-1.266.816-2.146.765zM134.39 259.34l30.134 12.174 14.984-37.087-30.133-12.175-14.984 37.088zm63.952-17.304l-10.72-4.331 4.682-11.59c.663-1.642.32-3.016-1.03-4.124l.117-.29c1.014-2.51.975-5.054-.12-7.63-1.093-2.577-2.895-4.373-5.406-5.387-1.642-.664-3.295-.882-4.96-.656-.37-4.644-2.729-7.843-7.075-9.6-3.863-1.56-7.453-1.157-10.769 1.211-.25-.214-.762-.477-1.535-.789-2.511-1.014-5.055-.975-7.631.119-2.577 1.094-4.372 2.896-5.387 5.407-.156.386-.225.696-.206.928-1.103.228-1.89.922-2.357 2.08l-21.54 53.314c-.39.966-.384 1.923.019 2.872.403.95 1.135 1.639 2.198 2.068l39.26 15.862c1.063.43 2.068.443 3.018.04.949-.403 1.618-1.088 2.009-2.053l5.619-13.908 10.575 4.273c.966.39 1.9.374 2.8-.049.902-.422 1.547-1.116 1.937-2.082l8.429-20.862c.294-1.004.263-1.972-.092-2.901-.354-.93-.966-1.57-1.835-1.922zM161.86 203.03c.58.234 1.216.603 1.911 1.109 2.293-2.894 5.177-3.638 8.654-2.233 1.932.78 3.3 2.12 4.106 4.018.806 1.898.819 3.813.039 5.745l-.059.145c.695.505 1.244.952 1.65 1.34 1.881-1.599 3.981-1.93 6.299-.993 1.545.624 2.663 1.75 3.354 3.377.69 1.627.724 3.214.1 4.759l-35.784-14.458c.953-1.524 2.33-2.57 4.131-3.133 1.801-.565 3.667-.457 5.599.324zm5.556 71.338c-.547 1.352-1.496 1.755-2.848 1.209l-33.031-13.346c-1.352-.546-1.755-1.495-1.209-2.847l18.965-46.939c.546-1.352 1.495-1.755 2.847-1.209l33.031 13.346c1.352.546 1.755 1.495 1.21 2.847l-18.965 46.939zm20.112-9.737l-9.272-3.747 7.492-18.543 9.272 3.746-7.492 18.544z"/><path fill-rule="nonzero" d="M241.387 104.295l.254-.887-1.427.695.624-1.46-1.502.511.802-1.368-1.554.318.969-1.257-1.582.12 1.116-1.126-1.585-.078 1.251-.978-1.563-.277 1.363-.811-1.515-.471 1.453-.636-1.445-.655 1.521-.449-1.35-.832 1.566-.254-1.236-.995 1.586-.055-1.1-1.142 1.58.143-.951-1.27 1.55.34-.783-1.379 1.494.532-.604-1.467 1.416.716-.415-1.532 1.316.887-.22-1.572 1.194 1.044-.02-1.586 1.052 1.187.18-1.576.895 1.308.375-1.543.724 1.41.564-1.482.543 1.491.746-1.4.352 1.547.915-1.297.157 1.578 1.069-1.17-.044 1.586 1.21-1.029-.243 1.568 1.328-.868-.436 1.524 1.426-.695-.626 1.458 1.504-.51-.804 1.369 1.556-.32-.967 1.257 1.58-.12-1.117 1.127 1.587.076-1.25.979 1.562.276-1.364.813 1.515.47-1.452.636 1.444.655-1.523.45 1.352.83-1.568.255 1.238.995-1.586.057.448.464c2.77-.16 5.33.063 7.735.628a41.497 41.497 0 0 1-20.663 7.148 42.48 42.48 0 0 1-7.408-.139 29.578 29.578 0 0 1 5.791-3.762zm47.352 18.024l-65.98 16.45c.276-2.774.662-5.58 1.147-8.113l-.114.67 2.956-2.289 1.189-4.61-3.344 3.06c.278-1.142.584-2.256.92-3.34l1.544-.91-1.232-.054c.185-.554.38-1.098.582-1.635l.87.225-.675-.736c.256-.656.528-1.297.812-1.927l1.05 1.783.19-4.273c1.515-2.764 3.357-5.23 5.598-7.364a42.56 42.56 0 0 0 8.784.326 42.998 42.998 0 0 0 7.606-1.186c4.642-1.158 9.41-3.17 14.481-6.958 2.86.86 5.495 2.227 7.994 4.018l2.212 3.751.086-1.95c.53.449 1.055.918 1.575 1.405l-.199.764.512-.469c.399.381.796.773 1.189 1.176l-.82.483 1.348.06c.714.75 1.422 1.539 2.128 2.357l-3.695-.953 3.216 3.512 3 .516c1.511 1.933 3.541 4.018 5.07 6.21zm-34.772-4.613l3.513-3.215.633-3.683-2.957 2.288-1.189 4.61zm-24.039 3.406l3.512-3.214.633-3.683-2.955 2.288-1.19 4.61zm1.89 7.636l-2.418-4.1-.21 4.756 2.158 3.051.47-3.707zm5.67-.837l-2.288-2.956-4.61-1.189 3.214 3.513 3.684.632zm1.129-7.555l-3.708-.473-4.1 2.42 4.756.21 3.052-2.157zm4.67 1.423l3.708.472 4.1-2.42-4.757-.21-3.052 2.158zm8.69-.758l-3.514 3.214-.632 3.685 2.956-2.288 1.19-4.611zm-.662-2.654l-3.215-3.512-3.684-.632 2.288 2.955 4.61 1.19zm4.544 6.974l-2.419-4.1-.212 4.756 2.158 3.051.473-3.707zm-3.145-12.61l-2.157-3.053-.473 3.708 2.42 4.1.21-4.756zm8.813 11.774l-2.288-2.956-4.611-1.19 3.214 3.513 3.685.633zm1.13-7.556l-3.708-.472-4.1 2.419 4.756.21 3.051-2.157zm3.455-3.448l3.707.471 4.1-2.418-4.756-.211-3.051 2.158zm8.688-.757l-3.513 3.214-.632 3.683 2.955-2.288 1.19-4.61zm-.662-2.654l-3.214-3.512-3.684-.633 2.287 2.956 4.611 1.189zm4.546 6.973l-2.419-4.1-.21 4.756 2.157 3.051.472-3.707zm17.812 11.567c-.307-1.235-2.161-1.523-3.394-1.215l-.97.242-69.862 17.418-.97.242c-1.234.307-2.735 1.432-2.427 2.666l.483 1.94 77.624-19.353-.484-1.94zm-76.656 23.234l1.21 4.852 77.624-19.354-1.21-4.851-77.624 19.353zm2.178 8.733c.307 1.233 2.161 1.522 3.394 1.215l71.802-17.902c1.233-.308 2.735-1.433 2.427-2.667l-.484-1.94-77.623 19.354.484 1.94zm66.906-37.272l-65.923 16.415c-.127 1.427.08 2.639-.003 4.123l67.921-16.935c-.84-1.254-1.176-2.412-1.995-3.603z"/><path d="M32.5 326.5c-.677 0-1.263.247-1.758.742-.495.495-.742 1.08-.742 1.758v7.5c0 .677.247 1.263.742 1.758.495.495 1.08.742 1.758.742.677 0 1.263-.247 1.758-.742.495-.495.742-1.08.742-1.758V329c0-.677-.247-1.263-.742-1.758-.495-.495-1.08-.742-1.758-.742zm-15 0c-.677 0-1.263.247-1.758.742-.495.495-.742 1.08-.742 1.758v7.5c0 .677.247 1.263.742 1.758.495.495 1.08.742 1.758.742.677 0 1.263-.247 1.758-.742.495-.495.742-1.08.742-1.758V329c0-.677-.247-1.263-.742-1.758-.495-.495-1.08-.742-1.758-.742zm40.156-54.922a20.51 20.51 0 0 0-3.437-5.117 23.275 23.275 0 0 0-4.688-3.945 23.042 23.042 0 0 0-5.625-2.579c-2.031-.625-4.166-.937-6.406-.937-2.969 0-5.768.534-8.398 1.602-2.63 1.067-4.948 2.552-6.954 4.453a23.323 23.323 0 0 0-4.882 6.64c-1.25 2.526-1.98 5.248-2.188 8.164a21.693 21.693 0 0 0-6.055 2.774 20.535 20.535 0 0 0-4.765 4.336 19.9 19.9 0 0 0-3.125 5.586A18.556 18.556 0 0 0 0 299c0 2.656.52 5.156 1.563 7.5a20.453 20.453 0 0 0 4.257 6.21c1.797 1.798 3.907 3.243 6.328 4.337 2.422 1.094 5.04 1.719 7.852 1.875h5.39c3.594 0 7.566.013 11.915.039 4.349.026 8.359.039 12.03.039H55c3.281 0 6.432-.625 9.453-1.875 3.021-1.25 5.677-2.943 7.969-5.078 2.292-2.136 4.127-4.649 5.508-7.54 1.38-2.89 2.07-5.976 2.07-9.257 0-3.177-.573-6.159-1.719-8.945-1.146-2.787-2.734-5.235-4.765-7.344-2.032-2.11-4.401-3.828-7.11-5.156-2.708-1.328-5.625-2.07-8.75-2.227zM55 314H20l-2.344-.469c-1.562-.312-3.294-.976-5.195-1.992-1.901-1.016-3.62-2.513-5.156-4.492C5.768 305.067 5 302.385 5 299c0-1.875.417-3.685 1.25-5.43a17.285 17.285 0 0 1 3.281-4.687 16.416 16.416 0 0 1 4.766-3.36A16.275 16.275 0 0 1 20 284c0-2.604.404-5.104 1.21-7.5.808-2.396 1.967-4.518 3.477-6.367a17.31 17.31 0 0 1 5.508-4.453c2.162-1.12 4.597-1.68 7.305-1.68 4.27 0 7.812 1.172 10.625 3.516 2.813 2.343 4.714 5.338 5.703 8.984 3.125-.104 5.964.365 8.516 1.406 2.552 1.042 4.752 2.41 6.601 4.102 1.85 1.693 3.295 3.607 4.336 5.742 1.042 2.135 1.615 4.219 1.719 6.25.156 2.76-.378 5.352-1.602 7.773a22.19 22.19 0 0 1-4.804 6.368 23.242 23.242 0 0 1-6.602 4.296C59.57 313.48 57.24 314 55 314zm-7.5 12.5c-.677 0-1.263.247-1.758.742-.495.495-.742 1.08-.742 1.758v7.5c0 .677.247 1.263.742 1.758.495.495 1.08.742 1.758.742.677 0 1.263-.247 1.758-.742.495-.495.742-1.08.742-1.758V329c0-.677-.247-1.263-.742-1.758-.495-.495-1.08-.742-1.758-.742zm15 0c-.677 0-1.263.247-1.758.742-.495.495-.742 1.08-.742 1.758v7.5c0 .677.247 1.263.742 1.758.495.495 1.08.742 1.758.742.677 0 1.263-.247 1.758-.742.495-.495.742-1.08.742-1.758V329c0-.677-.247-1.263-.742-1.758-.495-.495-1.08-.742-1.758-.742zM263.336 409.319c.536 2.32.179 4.479-1.07 6.478-1.25 1.999-3.034 3.266-5.353 3.802-2.32.535-4.48.178-6.479-1.07-1.999-1.25-3.266-3.034-3.801-5.354-.402-1.74-.263-3.452.417-5.136.68-1.685 1.791-3.025 3.333-4.023l-3.967-17.182 5.568-1.285 3.967 17.182c1.822.22 3.408.939 4.758 2.154 1.35 1.216 2.225 2.694 2.627 4.434zm5.568-1.286c-.516-2.233-1.49-4.207-2.925-5.922a14.202 14.202 0 0 0-5.214-3.928l-7.712-33.407c-.536-2.32-1.803-4.104-3.802-5.353-1.999-1.25-4.158-1.606-6.478-1.07-2.32.535-4.105 1.802-5.354 3.801-1.249 1.999-1.605 4.158-1.07 6.478l7.713 33.407a14.202 14.202 0 0 0-2.964 5.816c-.538 2.17-.549 4.372-.033 6.605.89 3.857 3.004 6.828 6.342 8.914 3.337 2.085 6.934 2.683 10.791 1.792 3.857-.89 6.828-3.004 8.913-6.341 2.086-3.338 2.683-6.935 1.793-10.792zm5.568-1.285c1.238 5.365.391 10.394-2.542 15.088-2.933 4.694-7.082 7.66-12.447 8.898-5.364 1.239-10.394.392-15.088-2.541-4.693-2.933-7.66-7.082-8.898-12.447-1.219-5.278-.41-10.245 2.425-14.9l-7.14-30.928c-.891-3.857-.294-7.454 1.792-10.792 2.085-3.337 5.056-5.451 8.913-6.341 3.857-.89 7.454-.293 10.792 1.792 3.337 2.086 5.451 5.057 6.341 8.914l7.14 30.927c4.59 2.942 7.493 7.052 8.712 12.33zm-.217-26.34l1.286 5.567-8.352 1.928-1.286-5.568 8.352-1.928zm-2.57-11.137l1.285 5.568-8.352 1.928-1.285-5.567 8.351-1.929zm-2.572-11.135l1.286 5.568-8.352 1.928-1.285-5.568 8.351-1.928z"/><path fill-rule="nonzero" d="M159.582 381.722l-6.825-1.561a3.005 3.005 0 0 0-3.596 2.256l-1.335 5.842-.326-8.398a3 3 0 0 0-3.114-2.881l-6.993.271a3.002 3.002 0 0 0-2.881 3.114l.544 13.984-1.339.284-4.574-21.519a3 3 0 0 0-3.558-2.31l-6.847 1.455a3 3 0 0 0-2.311 3.558l2.703 12.716-6.847 1.455c-.121.026-.232.072-.347.112l-5.341-11.097a3.002 3.002 0 0 0-4.005-1.402l-6.307 3.037a3.001 3.001 0 0 0-1.402 4.004l3.659 7.599c-.02.012-.042.019-.062.032l-5.876 3.804a3 3 0 0 0-.888 4.15l8.59 13.267c-.15.471-.196.98-.086 1.5l14.953 51.107a2.95 2.95 0 0 0 3.499 2.272l45.092-9.584a2.949 2.949 0 0 0 2.272-3.5l-7.127-52.77a2.927 2.927 0 0 0-.695-1.347l3.626-15.858a2.999 2.999 0 0 0-2.256-3.592zm-21.033-.514l4.997-.194.786 20.27-1.188-5.587a3 3 0 0 0-3.558-2.311l-.56.119-.477-12.297zm.89 16.298l3.4 15.996c-.75 2.341-.987 4.975-.366 7.896-.99.789-1.848 1.495-2.615 2.127l-5.31-24.979 4.891-1.04zm-14-22.582l4.99 23.476 5.923 27.87c-1.632 1.1-2.927 1.5-4.843 1.265l-10.962-51.571 4.891-1.04zm-6.456 17.73l7.109 33.441c-.68-.225-1.406-.474-2.204-.747-.698-3.285-2.47-5.796-4.707-7.716l-5.088-23.939 4.89-1.04zm-15.559-11.014l7.193 14.939 3.834 18.04a27.188 27.188 0 0 0-.894-.405l-14.64-30.406 4.507-2.168zm-3.611 14.535l2.423 3.745 6.037 12.539a39.282 39.282 0 0 0-4.408-.823l-8.25-12.744 4.198-2.717zm54.354 4.735a31.356 31.356 0 0 0-5.687 4.17l-.056-1.489 4.416-19.309 4.873 1.116-3.546 15.512z"/><path d="M30.346 115.628c-10.133 2.34-14.987 10.017-11.899 23.395 3.425 14.834 21.45 27.345 34.788 35.566 1.386.866 3.597 1.68 5.518 1.237 3.708-.856 5.445-5.721 6.963-8.513 6.652-12.278 14.878-27.71 11.438-42.611-1.896-8.212-8.758-12.557-15.977-10.89-7.748 1.788-10.748 8.131-10.743 15.106-3.674-10.174-10.022-15.614-20.088-13.29z"/></g></svg>