<svg xmlns="http://www.w3.org/2000/svg" width="11" height="23" viewBox="0 0 11 23">
  <g fill="none" fill-rule="evenodd" transform="translate(-10 -4)">
    <circle cx="15" cy="15" r="15"/>
    <path fill="#FFFFFF" d="M14.1716723,19.8464567 L16.1336146,19.0918635 C16.4354519,18.9711286 16.5863705,18.6391076 16.4354519,18.3070866 C16.2241658,17.7637795 16.1336146,17.2808399 16.1336146,16.9488189 C16.1336146,15.8018373 17.3409637,14.8661417 18.6388639,13.5984252 C19.6349269,12.6023622 20.9328272,11.2139108 20.9328272,8.98031496 C20.9328272,6.08267717 18.7294151,4 15.4997563,4 C13.5981815,4 11.8173416,4.72440945 10.2477878,6.02230971 C9.97613427,6.26377953 9.91576681,6.65616798 10.1270529,6.95800525 L11.1834833,8.52755906 C11.3947694,8.85958005 11.7569742,8.88976378 12.0588114,8.64829396 C13.1152419,7.80314961 14.322591,7.29002625 15.4092051,7.29002625 C16.6467379,7.29002625 17.4918823,7.98425197 17.4918823,9.04068241 C17.4918823,9.88582677 16.9485752,10.5800525 15.5601238,11.8779528 C13.8698351,13.4475066 12.6021185,14.6850394 12.6021185,16.7979003 C12.6021185,17.7034121 12.8435883,18.6089239 13.2963442,19.5144357 C13.4774466,19.8464567 13.8396513,19.9671916 14.1716723,19.8464567 Z M14.7149794,27 C16.1034309,27 17.2202288,25.8832021 17.2202288,24.4947507 C17.2202288,23.1062992 16.1034309,21.9895013 14.7149794,21.9895013 C13.326528,21.9895013 12.2097301,23.1062992 12.2097301,24.4947507 C12.2097301,25.8832021 13.326528,27 14.7149794,27 Z"/>
  </g>
</svg>
