<svg xmlns="http://www.w3.org/2000/svg" width="108" height="78" viewBox="0 0 108 78"><path fill="#F8E71C" fill-rule="evenodd" d="M53.341 7.825c-3.38 1.47-7.218 3.471-11.517 6.006-4.298 2.535-7.733 4.978-10.304 7.33a56.337 56.337 0 0 0-7.99 8.926c-2.388 3.306-4.243 7.09-5.566 11.352h6.172c6.392 0 11.168 1.212 14.327 3.637 3.16 2.424 4.74 5.804 4.74 10.139 0 5.584-2.352 10.672-7.054 15.264-4.703 4.592-10.287 6.888-16.752 6.888-6.833 0-11.774-1.855-14.823-5.566C1.524 68.091 0 63.297 0 57.42c0-11.535 4.868-22.593 14.603-33.173C24.338 13.666 36.223 5.584 50.255 0l3.086 7.825zm54.333 0c-3.38 1.47-7.218 3.471-11.516 6.006-4.299 2.535-7.733 4.978-10.305 7.33a56.337 56.337 0 0 0-7.99 8.926c-2.388 3.306-4.243 7.09-5.566 11.352h6.172c6.392 0 11.168 1.212 14.327 3.637 3.16 2.424 4.74 5.804 4.74 10.139 0 5.584-2.352 10.672-7.054 15.264-4.702 4.592-10.286 6.888-16.752 6.888-6.833 0-11.774-1.855-14.823-5.566-3.05-3.71-4.574-8.504-4.574-14.382 0-11.535 4.868-22.593 14.603-33.173C78.67 13.666 90.556 5.584 104.589 0l3.085 7.825z"/></svg>