<svg xmlns="http://www.w3.org/2000/svg" width="138" height="125" viewBox="0 0 138 125"><path fill="#FFF" fill-rule="evenodd" stroke="#5C000B" stroke-width="4" d="M85.55 57.77L12.832 7.715c-2.89-1.84-5.353-2.168-7.39-.985-2.036 1.182-3.054 3.613-3.054 7.291v96.958c0 3.678 1.018 6.142 3.054 7.39 2.037 1.248 4.5.887 7.39-1.084L85.55 67.427l1.38-1.38c.92-.92 1.38-2.102 1.38-3.547 0-1.445-.46-2.595-1.38-3.449l-1.38-1.28zM115.9 2h10.05c2.76 0 5.124.328 7.095.985C135.014 3.642 136 5.35 136 8.11v108.979c0 2.759-.985 4.434-2.956 5.025-1.97.591-4.336.887-7.094.887h-10.051c-2.759 0-5.124-.296-7.094-.887-1.971-.591-2.956-2.266-2.956-5.025V8.109c0-2.759.985-4.467 2.956-5.124 1.97-.657 4.335-.985 7.094-.985z"/></svg>