<svg xmlns="http://www.w3.org/2000/svg" width="426" height="426" viewBox="0 0 426 426" xmlns:xlink="http://www.w3.org/1999/xlink">
  <defs>
    <polygon id="a" points="157.595 7.001 208.729 186.581 201.612 0 214.294 186.286 246.124 2.301 219.796 187.152 289.185 13.808 224.999 189.147 328.91 34.016 229.673 192.178 363.569 62.041 233.614 196.114 391.643 96.661 236.653 200.786 411.904 136.359 238.653 205.984 423.468 179.403 239.527 211.488 425.831 223.913 239.242 217.051 418.89 267.94 237.802 222.433 402.945 309.561 235.278 227.399 378.696 346.959 231.774 231.732 347.2 378.497 227.447 235.241 309.837 402.797 222.485 237.773 268.237 418.798 217.104 239.219 224.22 425.801 211.54 239.515 179.708 423.499 206.036 238.647 136.648 411.992 200.833 236.654 96.921 391.784 196.159 233.623 62.263 363.759 192.216 229.686 34.19 329.14 189.179 225.015 13.928 289.44 187.179 219.815 2.363 246.396 186.303 214.314 0 201.889 186.591 208.748 6.942 157.859 188.03 203.367 22.887 116.239 190.555 198.4 47.136 78.842 194.059 194.068 78.631 47.305 198.386 190.559 115.995 23.002 203.349 188.026"/>
  </defs>
  <g fill="none" fill-rule="evenodd">
    <use fill="#F8E71C" xlink:href="#a"/>
  </g>
</svg>
