<svg xmlns="http://www.w3.org/2000/svg" width="104" height="104" viewBox="0 0 104 104" xmlns:xlink="http://www.w3.org/1999/xlink">
  <defs>
    <polygon id="a" points="38.474 1.709 50.957 45.55 49.22 0 52.316 45.478 60.087 .562 53.659 45.69 70.599 3.371 54.929 46.177 80.297 8.304 56.07 46.917 88.759 15.146 57.033 47.878 95.612 23.598 57.774 49.018 100.559 33.289 58.263 50.287 103.382 43.798 58.476 51.631 103.959 54.664 58.407 52.989 102.264 65.413 58.055 54.303 98.372 75.574 57.439 55.515 92.452 84.704 56.583 56.573 84.762 92.403 55.527 57.43 75.641 98.335 54.316 58.048 65.485 102.242 53.002 58.401 54.739 103.951 51.644 58.473 43.872 103.389 50.3 58.261 33.36 100.58 49.03 57.775 23.661 95.647 47.889 57.035 15.2 88.805 46.926 56.074 8.347 80.353 46.184 54.933 3.4 70.661 45.696 53.664 .577 60.153 45.483 52.321 0 49.287 45.553 50.962 1.695 38.538 45.904 49.648 5.587 28.378 46.521 48.436 11.507 19.248 47.376 47.378 19.196 11.549 48.432 46.521 28.318 5.615 49.644 45.903"/>
  </defs>
  <g fill="none" fill-rule="evenodd">
    <use fill="#FFFFFF" xlink:href="#a"/>
  </g>
</svg>
