<svg xmlns="http://www.w3.org/2000/svg" width="426" height="426" viewBox="0 0 426 426" xmlns:xlink="http://www.w3.org/1999/xlink"><defs><path id="a" d="M157.595 7.001l51.134 179.58L201.612 0l12.682 186.286 31.83-183.985-26.328 184.851 69.389-173.344-64.186 175.339L328.91 34.016l-99.237 158.162L363.569 62.041 233.614 196.114l158.029-99.453-154.99 104.125 175.251-64.427-173.251 69.625 184.815-26.581-183.941 32.085 186.304 12.425-186.589-6.862L418.89 267.94l-181.088-45.507 165.143 87.128-167.667-82.162 143.418 119.56-146.922-115.227L347.2 378.497 227.447 235.241l82.39 167.556-87.352-165.024 45.752 181.025-51.133-179.579 7.116 186.582-12.68-186.286-31.832 183.984 26.328-184.852-69.388 173.345 64.185-175.338-103.912 155.13 99.238-158.161L62.263 363.759l129.953-134.073L34.19 329.14l154.989-104.125L13.928 289.44l173.251-69.625L2.363 246.396l183.94-32.082L0 201.889l186.591 6.859L6.942 157.859l181.088 45.508-165.143-87.128L190.555 198.4 47.136 78.842l146.923 115.226L78.631 47.305l119.755 143.254-82.391-167.557 87.354 165.024z"/></defs><use fill="#FFF" xlink:href="#a" fill-rule="evenodd"/></svg>