<svg xmlns="http://www.w3.org/2000/svg" width="365" height="27" viewBox="0 0 365 27"><path fill="#F5A623" fill-rule="evenodd" d="M0 1.418v3.04C0 14.59 6.99 20.062 15.502 20.062H165.75c7.194 0 10.538 0 12.26 5.979h8.005c1.723-5.979 5.067-5.979 12.26-5.979h151.221c8.512 0 15.503-5.471 15.503-15.604v-3.04c0-.81-.608-1.419-1.418-1.419h-4.459c-.81 0-1.418.608-1.418 1.419v3.141c0 4.56-3.243 7.6-7.904 7.6H197.567c-9.019 0-13.68.608-15.504 6.687-1.925-6.08-6.586-6.687-15.604-6.687H15.199c-4.662 0-7.904-3.04-7.904-7.6V1.418c0-.81-.608-1.419-1.419-1.419H1.418C.608 0-.001.607-.001 1.418z"/></svg>