<svg xmlns="http://www.w3.org/2000/svg" width="299" height="302" viewBox="0 0 299 302"><g fill="#F8E71C"><path d="M184.618 47.835c-1.82-4.207-9.282-3.84-7.28 1.83 1.638 5.67 9.464 3.475 7.28-1.83zM255 225.137c0-2.69-7.296-7.062-9.162-4.204-4.242 7.063 8.992 11.772 9.162 4.204zm-43.734 36.37c-.17 0-.17.175-.339.175-4.75 2.966 0 17.624 6.446 15.007 8.142-3.141 1.018-18.67-6.107-15.181zM256 259c.945 3.718 4.158 7.612 5.859 5.31 1.134-1.77-4.914-4.78-5.859-5.31zM119.82 35.321c-2.166 1.8.362 8.014 2.89 4.744 1.083-1.31-1.084-6.379-2.89-4.744zM45.32 128.69c-1.676 2.869 3.724 5.063 5.4 1.35 1.49-3.207-3.352-4.05-5.214-1.688-.186.507-.186.507-.186.338zM84.587 167c-3.492 0-5.587 1.562-5.587 5.9v8.331c0 5.033 2.095 6.769 5.413 6.769 4.19 0 5.587-2.777 5.587-7.116v-7.983c-.174-4.513-2.095-5.901-5.413-5.901zm99.913 0c-4.297 0-5.5 2.596-5.5 6.923v4.154c0 4.327 1.203 6.923 5.5 6.923s5.5-2.596 5.5-6.923v-4.154c-.172-4.327-1.203-6.923-5.5-6.923zm-97-29c4.4 0 5.5-2.604 5.5-7.116V117h-5.133c-3.85 0-5.867 2.082-5.867 5.727v8.33c.184 4.86 1.834 6.943 5.5 6.943zm97.087 0c3.318 0 5.413-1.736 5.413-6.769v-8.33c0-4.513-2.095-5.901-5.587-5.901-3.318 0-5.413 1.388-5.413 5.9v8.158c0 4.165 1.397 6.942 5.587 6.942z"/><path d="M293.207 155.728c-2.637-.703-9.67-1.055-14.417 0-4.748.878-7.737.702-10.902-.176-3.517-.879-11.605-4.745-9.495-7.732 2.11-2.988 9.495-6.503 1.582-10.194-3.34-2.109-6.68-4.217-5.802-9.138.704-4.042 3.517-7.908 6.506-9.49 4.396-2.811 12.484-.878 16.704-6.853 2.285-2.637-5.978-5.8-12.133-1.407-6.153 4.218-8.615 4.042-13.714 3.691-2.461-.176-4.748-1.933-5.1-4.393-.35-2.46.704-4.394 3.342-5.624.879-.352 2.461-1.23 2.813-3.163.352-1.933-1.759-3.164-4.572-3.516-2.637-.351-4.571.176-6.857-.175-4.571-.879-7.21-7.733-4.571-11.599 3.516-5.448 6.68-11.423 18.462-19.331 11.78-7.908 12.659-15.114 9.318-15.29-5.274-.351-12.66 9.841-18.286 15.993-5.802 6.15-10.725 8.786-15.12 10.896-4.397 2.109-8.793 0-9.32-4.745-.176-1.407 0-2.988-.528-4.218-1.582-4.57-3.692-5.624-8.79-4.218-6.682 1.933-8.44.879-10.375-2.988-2.637-5.096-1.582-9.314.352-14.234.88-2.46 3.34-5.624.88-8.26-2.287-2.46-5.98-.88-7.034 1.23-1.583 2.812-1.231 5.975-1.759 9.138-.878 4.746-3.34 8.436-8.087 10.72-4.045 2.11-9.671 1.055-12.66-2.46-9.143-10.017-9.143-22.67-8.968-26.888.352-8.26 4.396-24.955 1.231-29.524-.703-1.055-2.813-1.933-4.396-1.757-2.285.175-3.516 2.284-3.692 4.217-.352 6.854 1.758 24.78 1.407 32.688-.352 7.908-2.814 15.29-6.506 17.75-2.637 1.933-5.802 2.284-8.088.878-.88-.527-1.583-1.23-2.286-1.933-4.396-4.394-6.33-4.745-11.956-2.285-4.923 2.285-13.54-1.581-17.583-9.49-2.638-5.096-3.692-14.937-5.978-17.222-2.286-2.285-6.506-1.055-8.44 1.933-1.934 3.164-.352 7.908 2.461 10.544 2.99 2.637 5.275 5.975 8.265 10.896 2.988 4.745 1.23 10.193-1.056 14.587-1.934 4.042-7.032 1.581-10.901-.703-3.693-2.11-7.209-1.23-8.791 2.636-1.231 3.339.703 7.556-5.275 6.15-10.726-2.46-14.418-7.732-21.979-14.234-4.572-3.866-10.198-10.545-13.011-7.03-2.814 3.164 3.164 8.26 7.385 10.896 6.505 4.218 10.901 9.49 13.187 12.83 2.285 3.514 3.34 6.853.879 8.786-1.582 1.23-4.747 2.46-7.56.703-3.693-2.11-7.913-1.054-9.144.703-1.406 2.109 1.055 5.623 4.748 6.854 4.044 1.406 7.033 5.8 7.209 10.368 0 1.582-.176 4.042-2.462 4.57-7.385 1.757 2.286 7.732-8.967 8.963-5.45.351-7.21-.352-13.364-3.34-6.153-2.987-10.197 2.637-9.494 5.097 1.055 3.515 6.681 4.042 10.725 2.987 5.1-1.405 13.54 4.042 15.122 6.854 1.406 2.988-.704 7.03-3.869 10.72-3.165 3.69-6.68 4.394-10.725 4.745-4.923.527-10.725-.527-16.88-.878-6.33-.352-21.45-5.624-24.616.703-1.934 3.866 6.682 6.502 13.539 6.678 9.319.176 18.286-1.757 24.089.527 3.34 1.23 6.154 2.812 8.44 5.624 2.637 3.163 3.34 14.938.878 18.277-2.11 2.987-2.285 5.448 1.759 6.502 4.044 1.23 6.857 5.272 5.45 9.139-.703 2.108-3.34 3.69-5.274 5.447-2.813 2.46-6.33 2.812-9.847 3.866-3.34.88-12.307 8.084-1.934 10.72 3.693.704 6.33-1.405 8.792-3.69 4.747-4.393 13.714-6.854 19.516-3.69 2.287 1.23 2.638 3.69.704 5.8-2.638 2.987-3.34 6.502-1.23 8.786 4.747 4.745-9.847 12.302-14.946 15.114-5.803 3.163-11.43 6.678-15.297 12.126-3.868 5.096-1.407 10.017 1.582 9.665 3.693-.35 6.154-2.635 8.616-4.92 5.099-4.394 7.912-8.085 16.176-14.586 8.264-6.503 15.121-8.612 22.154-5.624 7.034 2.812 2.462 10.72 6.682 17.222 1.055 1.582 1.934 3.691 5.275 2.988 3.516-.703 5.978-7.732 11.956-3.164 7.56 6.151-.703 21.09-3.34 26.01-2.638 4.92-7.561 11.95-8.968 15.29-1.407 3.514-6.33 13.355-.352 15.113 4.924 1.406 12.309-21.089 14.946-27.415 2.638-6.503 9.67-15.641 15.121-16.169 2.11-.879 3.34.528 4.045 2.285 2.46 7.381 4.57 4.745 5.978 1.582.879-1.23 1.582-3.69 2.637-5.975 2.813-3.69 6.506.527 7.209 3.339 1.758 4.92 1.758 6.853.351 13.532-1.23 6.678 5.451 8.962 7.561 7.557 3.165-1.933 1.583-7.206 0-10.896-1.583-3.691-.176-9.666 2.286-11.775 2.462-2.11 7.209-4.569 10.022-4.394 5.1.176 8.088 3.164 9.67 6.678 1.935 4.57 4.748 13.708 5.627 19.683 1.055 5.976.176 22.495 7.21 23.725 4.395.879 4.043-8.61 2.461-14.937-2.286-8.788-5.803-16.345-5.803-22.32.176-7.732 4.396-10.72 5.275-11.422 3.341-2.812 6.682 2.46 10.726-.528 2.11-1.581 3.165-5.8 4.396-8.084 2.461-5.096 5.802-5.975 11.428-5.272 9.671-.175 15.298 12.302 17.583 16.87 1.583 3.164 3.517 6.68 5.979 9.14 11.605 11.247 11.077-1.231 10.9-3.164-.702-4.217-3.164-7.38-6.153-10.193-2.99-2.811-7.209-5.8-11.78-10.895-4.572-5.097-6.858-14.763-5.275-18.63 1.582-3.69 3.868-5.623 7.56-5.095 3.693.351 9.847-2.988 10.198-7.91 0-1.932-.351-3.865-.351-5.798-.352-8.963 16.703-3.163 20.396-.703 7.56 5.096 12.308 2.108 12.66-.527.351-2.637-1.583-4.745-3.869-5.8-5.978-2.636-15.12-3.163-19.693-7.732-2.461-2.46-3.516-4.57-4.044-8.26-.527-3.866 2.286-6.678 5.627-8.26 1.934-.879 2.461-2.285 1.934-4.393-.703-3.164 1.23-6.679 4.396-7.381 3.34-.703 6.154-.703 9.67 0 4.22.527 15.473 2.635 18.463 2.635 2.988 0 7.912-.702 8.791-2.108 1.055-1.582-3.165-4.57-5.627-5.448zm-91.255-32.688c0-9.49 4.571-14.06 13.89-14.06 9.496 0 13.891 4.395 13.891 14.06v8.611c0 9.666-4.571 14.06-13.89 14.06-9.495 0-13.89-4.394-13.89-14.06v-8.61zm-127.827-1.933c0-8.084 6.857-12.126 13.89-12.126h13.363v24.955c0 2.636.88 3.164 3.693 3.339h3.868v-17.046c0-2.637-1.583-3.164-4.396-3.34v-7.908c4.396 0 8.264.703 9.846 3.866 2.813-2.811 6.154-3.866 10.55-3.866 7.385 0 11.956 4.218 11.956 12.302v22.495c0 4.92 2.813 5.096 5.627 5.096h11.605c3.165 0 5.626-.352 5.626-5.096v-2.11c-1.582.528-3.517.703-5.626.703-9.495 0-13.89-4.393-13.89-14.059v-18.804h8.439v18.277c0 4.394 1.23 7.03 5.626 7.03 4.396 0 5.627-2.636 5.627-7.03v-18.277c0-9.49 1.934-11.247 11.604-11.247h8.265v11.775c1.758-.703 3.516-1.055 5.978-1.055 8.44 0 13.539 4.218 13.539 12.477v11.072c0 8.787-4.748 12.653-13.89 12.653-9.144 0-13.892-3.866-13.892-12.653v-27.59c-2.813 0-3.164.526-3.164 4.393v34.445c0 12.126-7.385 12.301-13.89 12.301h-12.133c-5.626 0-13.89 0-13.89-12.477v-20.738c0-4.569-1.935-6.502-5.275-6.502-3.165 0-5.803 1.582-5.803 6.151v22.495H105.07c-4.395 0-8.44-.352-10.198-4.218-1.758 1.933-4.044 4.393-8.791 4.393-7.56 0-11.956-4.217-11.956-12.301v-11.775zm155.784 75.041h-8.264v-22.143c0-4.57-1.934-6.503-5.275-6.503-3.165 0-5.802 1.582-5.802 6.152v22.318h-8.44v-24.779c0-2.46-1.407-2.988-3.868-3.34.527 1.758.879 3.691.879 5.976v20.913c0 10.896-7.385 12.126-13.89 12.302h-11.605c-5.627 0-13.89 0-13.89-12.477v-22.32H147.972c0-3.163-1.759-4.92-5.451-4.92-3.165 0-5.275 1.23-5.275 3.69 0 7.557 19.34-1.23 19.34 12.829 0 7.909-6.153 12.302-13.89 12.302-7.384 0-12.307-3.515-13.538-8.787-1.055 5.624-5.45 8.787-13.715 8.787h-13.539c-4.396 0-8.44-.527-10.198-4.218-2.11 2.46-4.571 4.394-9.495 4.394-7.032 0-11.78-3.866-11.78-12.653v-11.072c0-8.26 5.1-12.478 13.539-12.478 2.285 0 4.22.352 5.978 1.055v-11.775h8.264v35.851c0 2.636.879 3.163 3.692 3.339h.352c-.527-1.757-.879-3.69-.879-6.15v-8.085c0-8.963 4.571-14.059 13.89-14.059 7.913 0 12.309 2.987 13.54 9.49 1.23-6.327 6.68-9.49 13.538-9.49 5.099 0 9.143 1.757 11.429 4.745h1.407c3.164 0 4.395-1.582 4.395-4.393v-.88c2.814 0 6.858-1.23 8.264-4.568v39.717c0 4.92 2.814 5.096 5.627 5.096h11.605c3.165 0 5.45-.351 5.45-5.096v-2.11c-1.582.528-3.516.704-5.626.704-9.495 0-13.89-4.394-13.89-14.06v-5.096c0-9.49 4.57-14.059 13.89-14.059h12.484c4.395 0 8.264.703 9.846 3.866 2.813-2.812 6.33-3.866 10.726-3.866 7.385 0 11.956 4.218 11.956 12.302v23.55z"/><path d="M115.584 167c-4.4 0-5.584 2.692-5.584 7h11c-.169-4.667-1.523-7-5.416-7zm99.916-29c4.297 0 5.5-2.662 5.5-7.097v-7.806c0-4.435-1.203-7.097-5.5-7.097s-5.5 2.662-5.5 7.097v7.806c0 4.613 1.203 7.097 5.5 7.097zm-86.151 38v5.07H110v.17c0 4.225 1.22 6.76 5.578 6.76 3.66 0 5.23-1.521 5.752-3.887h16.037c.175 2.366 1.917 3.887 5.927 3.887 3.312 0 4.706-1.69 4.706-3.38-.174-5.747-15.34 0-18.651-8.62z"/></g></svg>