<svg xmlns="http://www.w3.org/2000/svg" width="64" height="54" viewBox="0 0 64 54">
  <path fill="#FF0055" fill-rule="evenodd" d="M47.0662183,222.84103 L44.1976217,235.685306 L41.97123,225.409909 C41.4575437,223.012348 40.2587036,222.498393 38.5461773,222.498393 C38.0148219,222.498393 35.5768193,222.552714 33.0431589,222.632404 L37.7810351,215.337647 C39.9132018,212.054543 43.5150347,210.020512 47.4273597,209.889784 C54.4179521,209.656087 65.818976,209.274949 73.8604898,209.006033 C79.1895634,208.82785 83.8300807,212.615655 84.7230848,217.872202 C85.6554861,223.360954 86.8427757,230.350084 87.808605,236.034539 C88.813533,241.949437 85.7888995,247.793421 80.4338596,250.406562 C80.2941784,250.498758 80.1479311,250.579582 79.9945207,250.647452 L75.4787613,252.642296 C75.1379155,257.590589 77.2590987,260.197313 79.6954598,261.567979 C79.9766128,261.730821 80.1040569,262.06913 80.0004899,262.377085 C79.8969229,262.68504 79.590699,262.877699 79.2683579,262.837346 C74.6741025,262.270712 69.2357912,260.59239 67.9177744,255.982256 L63.6616787,257.86246 C63.3676917,257.992202 63.1516038,258.071026 63.0065504,258.103619 C57.2629104,260.425788 50.7854968,260.176361 45.2251734,257.394707 C40.6357233,255.099012 35.0294364,252.294406 30.1792184,249.868133 C27.3319918,248.443923 25.2269257,245.873522 24.3917937,242.801582 C23.5564827,239.729612 24.0703182,236.447255 25.8043638,233.777554 L29.9732185,227.358879 C32.9901219,227.386636 36.9186236,227.443344 37.3473372,227.550492 L41.5859131,243.391973 L46.4239836,243.391973 L49.3780901,231.446641 L52.3751157,243.391973 L57.2560457,243.391973 L61.7903098,227.251431 C62.5066233,227.205468 63.3405315,227.179203 63.8494125,227.550492 L63.8494125,251.271242 L69.5438059,251.271242 L69.5438059,243.520372 C70.400099,243.77729 71.2990723,243.905689 72.369364,243.905689 C78.7060518,243.905689 82.3452226,239.838372 82.3452226,232.688251 C82.3452226,226.094884 79.4340054,222.412734 74.3389275,222.412734 C71.7273681,222.412734 70.014782,223.526005 68.9015116,225.152932 C68.173558,223.526005 66.8462889,222.455713 64.8343435,222.455713 C63.8004644,222.455713 58.0060856,222.501676 57.3742374,222.504661 L57.298726,222.498393 L54.6444863,235.770935 L51.7330004,222.84103 L47.0662183,222.84103 Z M72.0270259,239.153248 C71.127754,239.153248 70.271461,238.98196 69.5438059,238.682302 L69.5438059,231.617959 C69.5438059,228.792401 71.2990723,227.165175 73.0116584,227.165175 C75.2808797,227.165175 76.56517,229.263377 76.56517,232.987908 C76.56517,236.926886 74.8955628,239.153248 72.0270259,239.153248 Z" transform="translate(-24 -209)"/>
</svg>
